Simulation
nRows=19
nColumns=15
endheader
time  TH_x TH_y TH_z SC_y  SC_z  SC_x  AC_y  AC_z  AC_x  GH_y  GH_z  GH_yy  EL_x  PS_y
0.0  0.000000  0.000000  0.000000  -22.99365553170124  -1.2604751728903296  -10.410322227993328  60.17771505824185  12.678169477719415  -2.378937542075771  6.322741942703323  16.474125980589566  26.377595776280447  32.070188052060736  120.000000
0.040983606557377046  0.000000  0.000000  0.000000  -22.76610074604763  -0.7298603787124863  -10.525493195395352  60.055243695018525  13.389421842548009  -2.0352351303090734  6.807815502679331  17.26061139125865  24.897271850960923  31.766967396081565  120.000000
0.08196721311475409  0.000000  0.000000  0.000000  -22.63049671933645  -0.34168851602830214  -10.710671966785084  59.95926379323027  14.013586730946557  -1.7030101534674569  7.191065405465679  17.954894671387777  23.508507113675584  31.476932789477882  120.000000
0.12295081967213115  0.000000  0.000000  0.000000  -22.63630383915503  -0.054281681457426276  -10.941629548090013  59.91924431391509  14.614850605406001  -1.367936416216313  7.525404172665507  18.58334649480028  22.126332571989263  31.226458526194527  120.000000
0.16393442622950818  0.000000  0.000000  0.000000  -22.771422733077006  0.1699910042649959  -11.192129309395563  59.9637457405356  15.251682383812486  -1.0349986242346076  7.804076761683354  19.17875208149874  20.72624764744736  31.027839884928078  120.000000
0.20491803278688522  0.000000  0.000000  0.000000  -23.02817824070705  0.3743563400958197  -11.417644197428855  60.109282600430575  15.954724179430842  -0.7044856786131244  7.998417508682069  19.790849365958326  19.307531796278308  30.88861468511797  120.000000
0.2459016393442623  0.000000  0.000000  0.000000  -23.39225279011655  0.5907825926738094  -11.570465156573928  60.35702538222514  16.731451528871347  -0.3773974617543323  8.057904558837647  20.474365287536013  17.88409768606881  30.811320744358895  120.000000
0.28688524590163933  0.000000  0.000000  0.000000  -23.846777499865027  0.8366822922434876  -11.608452228969941  60.70894103347391  17.57302359074202  -0.06329911141745914  7.935116309849142  21.281693678933173  16.471073653064803  30.788540708924355  120.000000
0.32786885245901637  0.000000  0.000000  0.000000  -24.382493597928143  1.1110347079093577  -11.49641155971205  61.16894553074677  18.461340102724016  0.22119674563931455  7.5956852862062085  22.256319926588315  15.074927774217754  30.808570973873483  120.000000
0.3688524590163934  0.000000  0.000000  0.000000  -24.986925403686477  1.404247250052191  -11.209176924107485  61.73352806361447  19.368510301445923  0.4599509559004269  7.036561015325789  23.42757942182341  13.677704004598862  30.850822764094932  120.000000
0.40983606557377045  0.000000  0.000000  0.000000  -25.6431477432357  1.7045093924469439  -10.732510144979052  62.39183439567511  20.26322829378467  0.6398872391206275  6.285503340052722  24.80839702031478  12.248768432745441  30.888448709240148  120.000000
0.4508196721311475  0.000000  0.000000  0.000000  -26.330643964941626  1.9990798284700622  -10.064790131235974  63.12346161255534  21.11502947825887  0.7519903093484056  5.393912019253863  26.399173475460984  10.757402166911954  30.891858707802058  120.000000
0.4918032786885246  0.000000  0.000000  0.000000  -27.02523990903374  2.2790272823206044  -9.216398712441478  63.8983143681382  21.896187822983293  0.7945523119837706  4.424992673489038  28.188763595705236  9.183355171593314  30.831649774095883  120.000000
0.5327868852459016  0.000000  0.000000  0.000000  -27.70364662621522  2.5401221791776414  -8.208549454878446  64.67998882262691  22.5840193911617  0.7733480045795085  3.4379996560914368  30.15744623970981  7.526755061505308  30.688692438848822  120.000000
0.5737704918032787  0.000000  0.000000  0.000000  -28.347647554032708  2.783152525884631  -7.070381376136637  65.43009698104066  23.162377463657077  0.7006358025980008  2.4781049507506707  32.27812353901412  5.807588928698338  30.46235347007521  120.000000
0.6147540983606556  0.000000  0.000000  0.000000  -28.94637935352602  3.013282391674478  -5.83557691175439  66.1136260291105  23.622007911531576  0.5929145520774551  1.5717609241221593  34.51792440438925  4.061716171990433  30.171940154682147  120.000000
0.6557377049180327  0.000000  0.000000  0.000000  -29.496969395911645  3.238465328769278  -4.538454576882991  66.70311498253305  23.960827415086083  0.4678899098325017  0.7322194791039348  36.83989795631138  2.331650419656223  29.846634217858753  120.000000
0.6967213114754098  0.000000  0.000000  0.000000  -30.003454333462024  3.4670395223558015  -3.2105968599050754  67.18254348692842  24.183406967731617  0.34157774075719305  -0.03371822749100327  39.20498555898613  0.6570582456687452  29.51012239045654  120.000000
0.7377049180327868  0.000000  0.000000  0.000000  -30.474709951446183  3.70550638282147  -1.8785932335229567  67.5480896041716  24.299928442758038  0.225988289377003  -0.7202669210908939  41.574578391123545  -0.9309856736564249  29.169889927217373  120.000000
